<svg width="27" height="23" viewBox="0 0 68 60" fill="none" xmlns="http://www.w3.org/2000/svg">
<g clip-path="url(#clip0_2063_52183)">
<path d="M55.9451 19.4484C55.2277 19.2021 54.5045 18.9734 53.7754 18.7623C53.8966 18.2697 54.009 17.7752 54.1126 17.2787C55.7545 9.30349 54.6814 2.87643 51.0105 0.759489C47.492 -1.26949 41.7393 0.847451 35.928 5.90524C35.3553 6.40369 34.7962 6.9168 34.2509 7.44457C33.8853 7.09272 33.5139 6.7487 33.1367 6.41249C27.0439 1.00871 20.9364 -1.26656 17.2713 0.850383C13.7617 2.88523 12.7208 8.92819 14.1927 16.487C14.3432 17.2357 14.5093 17.9804 14.6911 18.7212C13.832 18.9675 12.9964 19.2285 12.1989 19.507C5.05934 21.9993 0.5 25.8989 0.5 29.9451C0.5 34.1233 5.39653 38.3161 12.8322 40.8524C13.4343 41.0596 14.0422 41.2511 14.656 41.4271C14.4566 42.2226 14.2806 43.024 14.1282 43.8313C12.7149 51.2582 13.8174 57.1575 17.3241 59.1806C20.9423 61.2683 27.0175 59.122 32.9373 53.9498C33.4064 53.5433 33.8756 53.1113 34.3447 52.6539C34.935 53.2266 35.541 53.7817 36.1626 54.3193C41.8977 59.251 47.5565 61.2389 51.0574 59.2158C54.6785 57.1194 55.8542 50.7832 54.3266 43.0749C54.2093 42.4885 54.0745 41.8884 53.922 41.2746C54.3481 41.1495 54.7664 41.0195 55.1769 40.8846C62.9087 38.322 67.9372 34.179 67.9372 29.9451C67.9372 25.8813 63.2313 21.9553 55.9451 19.4484ZM37.825 8.08082C42.8037 3.74725 47.4568 2.0408 49.5826 3.26053C51.8402 4.56236 52.714 9.81367 51.2949 16.7011C51.203 17.1506 51.1023 17.5973 50.9929 18.041C48.0213 17.3674 45.0084 16.8914 41.9739 16.616C40.2351 14.1185 38.3298 11.741 36.271 9.49994C36.7754 9.01517 37.2914 8.54213 37.8192 8.08082H37.825ZM20.4086 33.3962C21.0205 34.5768 21.6587 35.7399 22.3233 36.8853C23.0015 38.0581 23.7072 39.2143 24.4402 40.3539C22.3525 40.1282 20.2778 39.7955 18.2243 39.357C18.8224 37.4307 19.5554 35.4281 20.4116 33.3991L20.4086 33.3962ZM20.4086 26.6231C19.5701 24.6352 18.8546 22.6795 18.2682 20.7883C20.1887 20.3573 22.2412 20.0055 24.3786 19.7387C23.6632 20.8528 22.9742 21.9866 22.3115 23.1398C21.6469 24.2853 21.0146 25.4464 20.4086 26.6231ZM21.9392 30.0126C22.8266 28.1654 23.7844 26.3534 24.8126 24.5765C25.8329 22.7978 26.9217 21.063 28.0789 19.3722C30.0844 19.2197 32.1398 19.1376 34.2186 19.1376C36.3062 19.1376 38.3645 19.2197 40.3701 19.3722C41.5136 21.063 42.5965 22.7929 43.6188 24.5619C44.6469 26.3328 45.6165 28.1361 46.5274 29.9715C45.6282 31.8246 44.6626 33.6444 43.6305 35.431C42.6082 37.2059 41.5292 38.9456 40.3935 40.6501C38.3938 40.7967 36.3268 40.867 34.2186 40.867C32.1193 40.867 30.0785 40.8025 28.1141 40.6735C26.9491 38.9729 25.8505 37.2303 24.8184 35.4457C23.7903 33.6669 22.8305 31.8549 21.9392 30.0096V30.0126ZM46.1286 36.8736C46.8049 35.6949 47.4558 34.5025 48.0814 33.2965C48.9381 35.2341 49.6936 37.2149 50.3449 39.2309C48.2685 39.6969 46.1693 40.0541 44.0556 40.3011C44.7672 39.1713 45.4572 38.0278 46.1257 36.8706L46.1286 36.8736ZM48.052 26.6261C47.4304 25.4454 46.7854 24.2765 46.1169 23.1193C45.4562 21.9817 44.772 20.8577 44.0644 19.7475C46.2136 20.0201 48.2749 20.3808 50.213 20.8235C49.5907 22.7938 48.8695 24.7285 48.052 26.6261ZM34.2479 11.567C35.6511 13.0961 36.9761 14.6952 38.2179 16.358C35.5634 16.231 32.907 16.231 30.2486 16.358C31.5592 14.6281 32.8992 13.0213 34.2479 11.567ZM18.7198 3.34263C20.9775 2.03786 25.9619 3.89972 31.222 8.57048C31.5592 8.86955 31.8964 9.18034 32.2336 9.50287C30.1629 11.7443 28.2431 14.1206 26.4868 16.616C23.4612 16.8876 20.4564 17.3548 17.4912 18.0146C17.3192 17.3266 17.1648 16.6326 17.028 15.9329V15.9387C15.7584 9.45889 16.5999 4.57409 18.7198 3.34849V3.34263ZM15.4241 38.6533C14.8671 38.493 14.3139 38.3201 13.7646 38.1344C10.907 37.2354 8.23936 35.8181 5.89498 33.9533C5.22409 33.4921 4.65495 32.8982 4.22275 32.2082C3.79054 31.5183 3.50447 30.7471 3.38221 29.9422C3.38221 27.4881 7.04141 24.3566 13.1459 22.2309C13.9141 21.9612 14.6882 21.7168 15.4681 21.4979C16.3739 24.4054 17.4709 27.2498 18.752 30.0126C17.4547 32.8155 16.344 35.7011 15.4271 38.6504L15.4241 38.6533ZM31.0403 51.7889C28.8344 53.8122 26.2751 55.4124 23.4902 56.5095C22.7566 56.8612 21.9588 57.0588 21.1458 57.0901C20.3329 57.1213 19.5222 56.9856 18.7638 56.6913C16.638 55.4599 15.7525 50.7275 16.9576 44.3767C17.1023 43.6241 17.2665 42.8774 17.4502 42.1366C20.4468 42.7796 23.4835 43.2184 26.5396 43.4502C28.3101 45.9591 30.2435 48.349 32.3274 50.6044C31.9091 51.009 31.481 51.4029 31.0432 51.786L31.0403 51.7889ZM34.33 48.5285C32.9637 47.0566 31.6032 45.4264 30.2721 43.673C31.5622 43.7238 32.8777 43.7492 34.2186 43.7492C35.5928 43.7492 36.9493 43.7199 38.2883 43.6613C37.0529 45.3502 35.7317 46.9748 34.33 48.5285ZM51.8256 52.5366C51.7635 53.3484 51.5355 54.1388 51.1558 54.859C50.776 55.5792 50.2526 56.2138 49.6177 56.7236C47.492 57.955 42.9473 56.3541 38.0449 52.1378C37.4839 51.657 36.919 51.1429 36.3502 50.5956C38.394 48.3331 40.2826 45.935 42.0032 43.4179C45.0763 43.1588 48.128 42.6885 51.1365 42.0105C51.2734 42.5657 51.3946 43.1091 51.5001 43.6408C52.1527 46.5621 52.262 49.5786 51.8226 52.5395L51.8256 52.5366ZM54.2709 38.149C53.8985 38.2722 53.5203 38.3894 53.1333 38.5009C52.1908 35.5797 51.0506 32.7261 49.7204 29.9598C51.0014 27.2312 52.0985 24.4199 53.0043 21.5448C53.6904 21.7413 54.3618 21.9553 55.0069 22.1752C61.2521 24.3215 65.0579 27.4998 65.0579 29.9451C65.0579 32.5547 60.9443 35.9383 54.268 38.149H54.2709Z" fill="#61DAFB"></path>
<path d="M34.2187 23.9229C35.4101 23.9229 36.5747 24.2762 37.5652 24.9382C38.5557 25.6002 39.3276 26.5412 39.7833 27.642C40.2389 28.7428 40.3579 29.954 40.125 31.1224C39.8922 32.2908 39.318 33.3638 38.4752 34.2059C37.6323 35.0479 36.5587 35.621 35.39 35.8527C34.2214 36.0844 33.0103 35.9643 31.91 35.5076C30.8096 35.0509 29.8695 34.2781 29.2084 33.2869C28.5474 32.2958 28.1951 31.1308 28.1963 29.9394C28.1986 28.3437 28.8342 26.8141 29.9633 25.6866C31.0925 24.5591 32.623 23.9228 34.2187 23.9229Z" fill="#61DAFB"></path>
<path d="M62.4838 9.71139L35.5573 57.8607C35.0014 58.8548 33.5731 58.8607 33.0088 57.8714L5.54833 9.71603C4.93358 8.63798 5.85543 7.33216 7.07707 7.55052L34.0324 12.3686C34.2044 12.3994 34.3804 12.3991 34.5524 12.3677L60.944 7.55742C62.1616 7.33551 63.0878 8.63122 62.4838 9.71139Z" fill="url(#paint0_linear_2063_52183)"></path>
<path d="M46.8732 1.22995L26.9467 5.13446C26.6192 5.19863 26.3767 5.47618 26.357 5.80927L25.1312 26.5113C25.1024 26.9989 25.5502 27.3773 26.0261 27.2676L31.5739 25.9872C32.093 25.8675 32.562 26.3247 32.4553 26.8467L30.8071 34.9178C30.6961 35.4611 31.2061 35.9256 31.7366 35.7644L35.1632 34.7234C35.6944 34.5621 36.2049 35.0279 36.0925 35.5716L33.4731 48.2496C33.3092 49.0426 34.364 49.475 34.8039 48.7951L35.0978 48.341L51.335 15.9369C51.6069 15.3944 51.138 14.7757 50.5421 14.8907L44.8315 15.9928C44.2949 16.0963 43.8383 15.5965 43.9898 15.0715L47.717 2.1508C47.8686 1.62489 47.4104 1.1247 46.8732 1.22995Z" fill="url(#paint1_linear_2063_52183)"></path>
</g>
<defs>
<linearGradient id="paint0_linear_2063_52183" x1="4.87787" y1="5.82973" x2="38.39" y2="51.3419" gradientUnits="userSpaceOnUse">
<stop stop-color="#41D1FF"></stop>
<stop offset="1" stop-color="#BD34FE"></stop>
</linearGradient>
<linearGradient id="paint1_linear_2063_52183" x1="32.4857" y1="2.29002" x2="38.5479" y2="43.876" gradientUnits="userSpaceOnUse">
<stop stop-color="#FFEA83"></stop>
<stop offset="0.0833333" stop-color="#FFDD35"></stop>
<stop offset="1" stop-color="#FFA800"></stop>
</linearGradient>
<clipPath id="clip0_2063_52183">
<rect width="67.4372" height="60" fill="white" transform="translate(0.5)"></rect>
</clipPath>
</defs>
</svg>